<svg xmlns="http://www.w3.org/2000/svg" xmlns:xlink="http://www.w3.org/1999/xlink" width="2500" zoomAndPan="magnify" viewBox="0 0 1874.88 1874.999927" height="2500" preserveAspectRatio="xMidYMid meet" version="1.0"><defs><g/><clipPath id="74653a9010"><path d="M 1593.523438 1098.132812 L 1781.011719 1098.132812 L 1781.011719 1285.621094 L 1593.523438 1285.621094 Z M 1593.523438 1098.132812 " clip-rule="nonzero"/></clipPath><clipPath id="10d013c3db"><path d="M 77.15625 275.917969 L 614.871094 275.917969 L 614.871094 813.632812 L 77.15625 813.632812 Z M 77.15625 275.917969 " clip-rule="nonzero"/></clipPath><clipPath id="5b5f6c5cbb"><path d="M 288.195312 1351.214844 L 1627.058594 1351.214844 L 1627.058594 1377.621094 L 288.195312 1377.621094 Z M 288.195312 1351.214844 " clip-rule="nonzero"/></clipPath><clipPath id="4ba2c73688"><path d="M 957.625 1351.214844 C 587.910156 1351.214844 288.195312 1357.125 288.195312 1364.417969 C 288.195312 1371.707031 587.910156 1377.621094 957.625 1377.621094 C 1327.34375 1377.621094 1627.058594 1371.707031 1627.058594 1364.417969 C 1627.058594 1357.125 1327.34375 1351.214844 957.625 1351.214844 Z M 957.625 1351.214844 " clip-rule="nonzero"/></clipPath><clipPath id="34d673f9e1"><path d="M 1399.445312 544.386719 L 1528.882812 544.386719 L 1528.882812 673.824219 L 1399.445312 673.824219 Z M 1399.445312 544.386719 " clip-rule="nonzero"/></clipPath><clipPath id="6812fedb3f"><path d="M 1464.164062 544.386719 C 1428.421875 544.386719 1399.445312 573.363281 1399.445312 609.105469 C 1399.445312 644.847656 1428.421875 673.824219 1464.164062 673.824219 C 1499.90625 673.824219 1528.882812 644.847656 1528.882812 609.105469 C 1528.882812 573.363281 1499.90625 544.386719 1464.164062 544.386719 Z M 1464.164062 544.386719 " clip-rule="nonzero"/></clipPath></defs><path fill="#ffffff" d="M 1701.117188 1174.371094 C 1701.117188 1176.898438 1700.542969 1179.15625 1699.410156 1181.085938 C 1698.308594 1182.960938 1696.246094 1184.480469 1693.289062 1185.601562 C 1691.636719 1186.21875 1689.558594 1186.695312 1687.113281 1187.003906 C 1684.628906 1187.324219 1681.550781 1187.484375 1677.957031 1187.484375 L 1671.167969 1187.484375 L 1671.167969 1162.949219 L 1681.480469 1162.949219 C 1684.800781 1162.949219 1687.625 1163.109375 1689.867188 1163.429688 C 1692.054688 1163.738281 1693.882812 1164.222656 1695.3125 1164.875 C 1697.421875 1165.8125 1698.925781 1167.089844 1699.78125 1168.667969 C 1700.667969 1170.300781 1701.117188 1172.21875 1701.117188 1174.371094 Z M 1699.617188 1200.257812 C 1706.1875 1198.148438 1711.175781 1194.992188 1714.457031 1190.867188 C 1717.96875 1186.449219 1719.75 1181.007812 1719.75 1174.695312 C 1719.75 1168.664062 1718.273438 1163.566406 1715.367188 1159.542969 C 1712.46875 1155.539062 1708.308594 1152.480469 1702.992188 1150.449219 C 1700.230469 1149.425781 1696.882812 1148.652344 1693.035156 1148.144531 C 1689.21875 1147.636719 1685.046875 1147.382812 1680.632812 1147.382812 L 1652.992188 1147.382812 L 1652.992188 1236.832031 L 1671.167969 1236.832031 L 1671.167969 1203.050781 L 1680.453125 1203.050781 L 1704.191406 1236.832031 L 1726.085938 1236.832031 L 1699.617188 1200.257812 " fill-opacity="1" fill-rule="nonzero"/><g clip-path="url(#74653a9010)"><path fill="#ffffff" d="M 1687.394531 1113.4375 C 1644.074219 1113.4375 1608.832031 1148.683594 1608.832031 1192 C 1608.832031 1235.320312 1644.074219 1270.566406 1687.394531 1270.566406 C 1730.714844 1270.566406 1765.960938 1235.320312 1765.960938 1192 C 1765.960938 1148.683594 1730.714844 1113.4375 1687.394531 1113.4375 Z M 1687.394531 1285.875 C 1674.722656 1285.875 1662.429688 1283.386719 1650.851562 1278.492188 C 1639.675781 1273.765625 1629.636719 1266.996094 1621.019531 1258.378906 C 1612.398438 1249.761719 1605.632812 1239.722656 1600.90625 1228.542969 C 1596.007812 1216.964844 1593.523438 1204.671875 1593.523438 1192 C 1593.523438 1179.332031 1596.007812 1167.039062 1600.90625 1155.460938 C 1605.632812 1144.28125 1612.398438 1134.246094 1621.019531 1125.625 C 1629.636719 1117.007812 1639.675781 1110.242188 1650.851562 1105.511719 C 1662.429688 1100.617188 1674.726562 1098.132812 1687.394531 1098.132812 C 1700.0625 1098.132812 1712.355469 1100.617188 1723.9375 1105.511719 C 1735.113281 1110.242188 1745.152344 1117.007812 1753.769531 1125.625 C 1762.386719 1134.246094 1769.15625 1144.28125 1773.882812 1155.460938 C 1778.78125 1167.039062 1781.261719 1179.332031 1781.261719 1192 C 1781.261719 1204.671875 1778.78125 1216.964844 1773.882812 1228.542969 C 1769.15625 1239.722656 1762.386719 1249.757812 1753.769531 1258.378906 C 1745.152344 1266.996094 1735.113281 1273.765625 1723.9375 1278.492188 C 1712.355469 1283.386719 1700.0625 1285.875 1687.394531 1285.875 " fill-opacity="1" fill-rule="nonzero"/></g><g fill="#ffffff" fill-opacity="1"><g transform="translate(345.996991, 1174.268718)"><g><path d="M 11.71875 162.609375 C -14.75 162.609375 -37.816406 159.832031 -57.484375 154.28125 L -57.484375 56.71875 C -37.316406 61.757812 -18.910156 64.28125 -2.265625 64.28125 C 23.441406 64.28125 41.84375 56.273438 52.9375 40.265625 C 64.03125 24.265625 69.578125 -0.753906 69.578125 -34.796875 L 69.578125 -552.859375 L 186.8125 -552.859375 L 186.8125 -35.546875 C 186.8125 28.992188 172.0625 78.15625 142.5625 111.9375 C 113.0625 145.71875 69.445312 162.609375 11.71875 162.609375 Z M 11.71875 162.609375 "/></g></g></g><g fill="#ffffff" fill-opacity="1"><g transform="translate(468.502865, 1282.294098)"><g><path d="M 561.953125 -368.09375 C 561.953125 -294.050781 549 -227.796875 523.09375 -169.328125 C 497.195312 -110.859375 461.75 -66.710938 416.75 -36.890625 C 371.757812 -7.066406 319.960938 7.84375 261.359375 7.84375 C 194.378906 7.84375 142.117188 -11.445312 104.578125 -50.03125 C 67.035156 -88.625 48.265625 -142.191406 48.265625 -210.734375 C 48.265625 -280.054688 61.210938 -343.820312 87.109375 -402.03125 C 113.015625 -460.25 148.726562 -504.921875 194.25 -536.046875 C 239.769531 -567.179688 292.351562 -582.75 352 -582.75 C 418.71875 -582.75 470.390625 -563.910156 507.015625 -526.234375 C 543.640625 -488.566406 561.953125 -435.851562 561.953125 -368.09375 Z M 342.1875 -481.5 C 310.539062 -481.5 281.503906 -469.53125 255.078125 -445.59375 C 228.648438 -421.65625 207.914062 -388.753906 192.875 -346.890625 C 177.832031 -305.035156 170.3125 -259.648438 170.3125 -210.734375 C 170.3125 -172.273438 179.007812 -143.234375 196.40625 -123.609375 C 213.800781 -103.992188 238.328125 -94.1875 269.984375 -94.1875 C 301.640625 -94.1875 330.484375 -105.566406 356.515625 -128.328125 C 382.546875 -151.085938 402.882812 -183.265625 417.53125 -224.859375 C 432.1875 -266.453125 439.515625 -313.148438 439.515625 -364.953125 C 439.515625 -402.109375 431.007812 -430.820312 414 -451.09375 C 397 -471.363281 373.0625 -481.5 342.1875 -481.5 Z M 342.1875 -481.5 "/></g></g></g><g fill="#ffffff" fill-opacity="1"><g transform="translate(964.679955, 1262.582648)"><g><path d="M 385.015625 -575.828125 L 506.703125 -578.125 L 324.21875 -6.125 L 192.828125 -3.640625 L -10.734375 -568.359375 L 110.953125 -570.65625 L 224.234375 -234.453125 C 230.578125 -214.617188 237.171875 -191.476562 244.015625 -165.03125 C 250.867188 -138.582031 255.171875 -120.191406 256.921875 -109.859375 C 259.328125 -133.742188 268.265625 -175.648438 283.734375 -235.578125 Z M 385.015625 -575.828125 "/></g></g></g><g fill="#ffffff" fill-opacity="1"><g transform="translate(1345.26233, 1260.610419)"><g><path d="M 72.4375 0 L 72.4375 -575.5625 L 194.484375 -575.5625 L 194.484375 0 Z M 72.4375 0 "/></g></g></g><g clip-path="url(#10d013c3db)"><path fill="#ffffff" d="M 614.871094 544.859375 C 350.175781 547.070312 348.308594 548.941406 346.097656 813.632812 C 343.71875 548.941406 341.847656 547.070312 77.15625 544.859375 C 341.847656 542.480469 343.71875 540.609375 346.097656 275.917969 C 348.308594 540.609375 350.175781 542.480469 614.871094 544.859375 Z M 614.871094 544.859375 " fill-opacity="1" fill-rule="nonzero"/></g><g clip-path="url(#5b5f6c5cbb)"><g clip-path="url(#4ba2c73688)"><path fill="#ffffff" d="M 288.195312 1351.214844 L 1627.058594 1351.214844 L 1627.058594 1377.621094 L 288.195312 1377.621094 Z M 288.195312 1351.214844 " fill-opacity="1" fill-rule="nonzero"/></g></g><g clip-path="url(#34d673f9e1)"><g clip-path="url(#6812fedb3f)"><path fill="#ffffff" d="M 1399.445312 544.386719 L 1528.882812 544.386719 L 1528.882812 673.824219 L 1399.445312 673.824219 Z M 1399.445312 544.386719 " fill-opacity="1" fill-rule="nonzero"/></g></g></svg>