<svg xmlns="http://www.w3.org/2000/svg" xmlns:xlink="http://www.w3.org/1999/xlink" width="2500" zoomAndPan="magnify" viewBox="0 0 1874.88 1874.999927" height="2500" preserveAspectRatio="xMidYMid meet" version="1.0"><defs><g/><clipPath id="86053454d9"><path d="M 1593.523438 1098.132812 L 1781.011719 1098.132812 L 1781.011719 1285.621094 L 1593.523438 1285.621094 Z M 1593.523438 1098.132812 " clip-rule="nonzero"/></clipPath><clipPath id="5209164165"><path d="M 77.15625 275.917969 L 614.871094 275.917969 L 614.871094 813.632812 L 77.15625 813.632812 Z M 77.15625 275.917969 " clip-rule="nonzero"/></clipPath><clipPath id="9607491814"><path d="M 288.195312 1351.214844 L 1627.058594 1351.214844 L 1627.058594 1377.621094 L 288.195312 1377.621094 Z M 288.195312 1351.214844 " clip-rule="nonzero"/></clipPath><clipPath id="6d21b03c74"><path d="M 957.625 1351.214844 C 587.910156 1351.214844 288.195312 1357.125 288.195312 1364.417969 C 288.195312 1371.707031 587.910156 1377.621094 957.625 1377.621094 C 1327.34375 1377.621094 1627.058594 1371.707031 1627.058594 1364.417969 C 1627.058594 1357.125 1327.34375 1351.214844 957.625 1351.214844 Z M 957.625 1351.214844 " clip-rule="nonzero"/></clipPath><clipPath id="0817cc1f2e"><path d="M 1399.445312 544.386719 L 1528.882812 544.386719 L 1528.882812 673.824219 L 1399.445312 673.824219 Z M 1399.445312 544.386719 " clip-rule="nonzero"/></clipPath><clipPath id="5e2f2b895b"><path d="M 1464.164062 544.386719 C 1428.421875 544.386719 1399.445312 573.363281 1399.445312 609.105469 C 1399.445312 644.847656 1428.421875 673.824219 1464.164062 673.824219 C 1499.90625 673.824219 1528.882812 644.847656 1528.882812 609.105469 C 1528.882812 573.363281 1499.90625 544.386719 1464.164062 544.386719 Z M 1464.164062 544.386719 " clip-rule="nonzero"/></clipPath></defs><path fill="#000000" d="M 1700.976562 1174.269531 C 1700.976562 1176.792969 1700.402344 1179.050781 1699.269531 1180.976562 C 1698.171875 1182.847656 1696.109375 1184.367188 1693.15625 1185.484375 C 1691.507812 1186.105469 1689.429688 1186.578125 1686.988281 1186.886719 C 1684.507812 1187.207031 1681.433594 1187.367188 1677.847656 1187.367188 L 1671.066406 1187.367188 L 1671.066406 1162.863281 L 1681.367188 1162.863281 C 1684.683594 1162.863281 1687.5 1163.023438 1689.742188 1163.34375 C 1691.925781 1163.652344 1693.753906 1164.136719 1695.179688 1164.789062 C 1697.285156 1165.726562 1698.789062 1167 1699.644531 1168.574219 C 1700.527344 1170.207031 1700.976562 1172.121094 1700.976562 1174.269531 Z M 1699.480469 1200.121094 C 1706.039062 1198.019531 1711.023438 1194.867188 1714.296875 1190.746094 C 1717.804688 1186.332031 1719.582031 1180.898438 1719.582031 1174.59375 C 1719.582031 1168.570312 1718.113281 1163.480469 1715.207031 1159.460938 C 1712.3125 1155.460938 1708.160156 1152.410156 1702.847656 1150.382812 C 1700.089844 1149.359375 1696.746094 1148.585938 1692.90625 1148.078125 C 1689.09375 1147.574219 1684.925781 1147.320312 1680.519531 1147.320312 L 1652.914062 1147.320312 L 1652.914062 1236.648438 L 1671.066406 1236.648438 L 1671.066406 1202.914062 L 1680.339844 1202.914062 L 1704.042969 1236.648438 L 1725.910156 1236.648438 L 1699.480469 1200.121094 " fill-opacity="1" fill-rule="nonzero"/><g clip-path="url(#86053454d9)"><path fill="#000000" d="M 1687.269531 1113.417969 C 1644.007812 1113.417969 1608.8125 1148.617188 1608.8125 1191.878906 C 1608.8125 1235.140625 1644.007812 1270.339844 1687.269531 1270.339844 C 1730.535156 1270.339844 1765.734375 1235.140625 1765.734375 1191.878906 C 1765.734375 1148.617188 1730.535156 1113.417969 1687.269531 1113.417969 Z M 1687.269531 1285.628906 C 1674.617188 1285.628906 1662.339844 1283.144531 1650.777344 1278.257812 C 1639.617188 1273.535156 1629.589844 1266.773438 1620.984375 1258.167969 C 1612.375 1249.5625 1605.617188 1239.535156 1600.894531 1228.371094 C 1596.003906 1216.808594 1593.523438 1204.53125 1593.523438 1191.878906 C 1593.523438 1179.226562 1596.003906 1166.949219 1600.894531 1155.386719 C 1605.617188 1144.222656 1612.375 1134.195312 1620.984375 1125.589844 C 1629.589844 1116.980469 1639.617188 1110.222656 1650.777344 1105.503906 C 1662.339844 1100.613281 1674.621094 1098.132812 1687.269531 1098.132812 C 1699.925781 1098.132812 1712.203125 1100.613281 1723.765625 1105.503906 C 1734.929688 1110.222656 1744.953125 1116.980469 1753.558594 1125.589844 C 1762.167969 1134.195312 1768.925781 1144.222656 1773.648438 1155.386719 C 1778.539062 1166.949219 1781.015625 1179.226562 1781.015625 1191.878906 C 1781.015625 1204.53125 1778.539062 1216.808594 1773.648438 1228.371094 C 1768.925781 1239.535156 1762.167969 1249.558594 1753.558594 1258.167969 C 1744.953125 1266.773438 1734.929688 1273.535156 1723.765625 1278.257812 C 1712.203125 1283.144531 1699.925781 1285.628906 1687.269531 1285.628906 " fill-opacity="1" fill-rule="nonzero"/></g><g fill="#000000" fill-opacity="1"><g transform="translate(345.996991, 1174.268718)"><g><path d="M 11.71875 162.609375 C -14.75 162.609375 -37.816406 159.832031 -57.484375 154.28125 L -57.484375 56.71875 C -37.316406 61.757812 -18.910156 64.28125 -2.265625 64.28125 C 23.441406 64.28125 41.84375 56.273438 52.9375 40.265625 C 64.03125 24.265625 69.578125 -0.753906 69.578125 -34.796875 L 69.578125 -552.859375 L 186.8125 -552.859375 L 186.8125 -35.546875 C 186.8125 28.992188 172.0625 78.15625 142.5625 111.9375 C 113.0625 145.71875 69.445312 162.609375 11.71875 162.609375 Z M 11.71875 162.609375 "/></g></g></g><g fill="#000000" fill-opacity="1"><g transform="translate(468.502865, 1282.294098)"><g><path d="M 561.953125 -368.09375 C 561.953125 -294.050781 549 -227.796875 523.09375 -169.328125 C 497.195312 -110.859375 461.75 -66.710938 416.75 -36.890625 C 371.757812 -7.066406 319.960938 7.84375 261.359375 7.84375 C 194.378906 7.84375 142.117188 -11.445312 104.578125 -50.03125 C 67.035156 -88.625 48.265625 -142.191406 48.265625 -210.734375 C 48.265625 -280.054688 61.210938 -343.820312 87.109375 -402.03125 C 113.015625 -460.25 148.726562 -504.921875 194.25 -536.046875 C 239.769531 -567.179688 292.351562 -582.75 352 -582.75 C 418.71875 -582.75 470.390625 -563.910156 507.015625 -526.234375 C 543.640625 -488.566406 561.953125 -435.851562 561.953125 -368.09375 Z M 342.1875 -481.5 C 310.539062 -481.5 281.503906 -469.53125 255.078125 -445.59375 C 228.648438 -421.65625 207.914062 -388.753906 192.875 -346.890625 C 177.832031 -305.035156 170.3125 -259.648438 170.3125 -210.734375 C 170.3125 -172.273438 179.007812 -143.234375 196.40625 -123.609375 C 213.800781 -103.992188 238.328125 -94.1875 269.984375 -94.1875 C 301.640625 -94.1875 330.484375 -105.566406 356.515625 -128.328125 C 382.546875 -151.085938 402.882812 -183.265625 417.53125 -224.859375 C 432.1875 -266.453125 439.515625 -313.148438 439.515625 -364.953125 C 439.515625 -402.109375 431.007812 -430.820312 414 -451.09375 C 397 -471.363281 373.0625 -481.5 342.1875 -481.5 Z M 342.1875 -481.5 "/></g></g></g><g fill="#000000" fill-opacity="1"><g transform="translate(964.679955, 1262.582648)"><g><path d="M 385.015625 -575.828125 L 506.703125 -578.125 L 324.21875 -6.125 L 192.828125 -3.640625 L -10.734375 -568.359375 L 110.953125 -570.65625 L 224.234375 -234.453125 C 230.578125 -214.617188 237.171875 -191.476562 244.015625 -165.03125 C 250.867188 -138.582031 255.171875 -120.191406 256.921875 -109.859375 C 259.328125 -133.742188 268.265625 -175.648438 283.734375 -235.578125 Z M 385.015625 -575.828125 "/></g></g></g><g fill="#000000" fill-opacity="1"><g transform="translate(1345.26233, 1260.610419)"><g><path d="M 72.4375 0 L 72.4375 -575.5625 L 194.484375 -575.5625 L 194.484375 0 Z M 72.4375 0 "/></g></g></g><g clip-path="url(#5209164165)"><path fill="#000000" d="M 614.835938 544.84375 C 350.160156 547.054688 348.289062 548.921875 346.078125 813.597656 C 343.699219 548.921875 341.832031 547.054688 77.15625 544.84375 C 341.832031 542.464844 343.699219 540.59375 346.078125 275.917969 C 348.289062 540.59375 350.160156 542.464844 614.835938 544.84375 Z M 614.835938 544.84375 " fill-opacity="1" fill-rule="nonzero"/></g><g clip-path="url(#9607491814)"><g clip-path="url(#6d21b03c74)"><path fill="#000000" d="M 288.195312 1351.214844 L 1627.058594 1351.214844 L 1627.058594 1377.621094 L 288.195312 1377.621094 Z M 288.195312 1351.214844 " fill-opacity="1" fill-rule="nonzero"/></g></g><g clip-path="url(#0817cc1f2e)"><g clip-path="url(#5e2f2b895b)"><path fill="#000000" d="M 1399.445312 544.386719 L 1528.882812 544.386719 L 1528.882812 673.824219 L 1399.445312 673.824219 Z M 1399.445312 544.386719 " fill-opacity="1" fill-rule="nonzero"/></g></g></svg>